<?xml version="1.0" encoding="UTF-8" standalone="no"?>
<svg width="100%" height="auto" viewBox="0 0 1000 800" xmlns="http://www.w3.org/2000/svg">
  <title>Europe Interactive Map</title>
  <desc>Clickable map of Europe linking to blog posts</desc>

  <a href="https://namkoong7.tistory.com/entry/uk" target="_blank">
    <rect x="60" y="250" width="80" height="30" fill="#3399cc" rx="6" ry="6"/>
    <text x="70" y="270" font-size="12" fill="white">UK</text>
  </a>

  <a href="https://namkoong7.tistory.com/entry/france" target="_blank">
    <rect x="160" y="360" width="80" height="30" fill="#3399cc" rx="6" ry="6"/>
    <text x="170" y="380" font-size="12" fill="white">France</text>
  </a>

  <a href="https://namkoong7.tistory.com/entry/germany" target="_blank">
    <rect x="260" y="300" width="80" height="30" fill="#3399cc" rx="6" ry="6"/>
    <text x="270" y="320" font-size="12" fill="white">Germany</text>
  </a>

  <a href="https://namkoong7.tistory.com/entry/italy" target="_blank">
    <rect x="240" y="420" width="80" height="30" fill="#3399cc" rx="6" ry="6"/>
    <text x="250" y="440" font-size="12" fill="white">Italy</text>
  </a>

  <a href="https://namkoong7.tistory.com/entry/austria" target="_blank">
    <rect x="320" y="340" width="80" height="30" fill="#3399cc" rx="6" ry="6"/>
    <text x="330" y="360" font-size="12" fill="white">Austria</text>
  </a>

  <a href="https://namkoong7.tistory.com/entry/greece" target="_blank">
    <rect x="400" y="480" width="80" height="30" fill="#3399cc" rx="6" ry="6"/>
    <text x="410" y="500" font-size="12" fill="white">Greece</text>
  </a>

  <a href="https://namkoong7.tistory.com/entry/spain" target="_blank">
    <rect x="100" y="440" width="80" height="30" fill="#3399cc" rx="6" ry="6"/>
    <text x="110" y="460" font-size="12" fill="white">Spain</text>
  </a>

  <a href="https://namkoong7.tistory.com/entry/denmark" target="_blank">
    <rect x="280" y="240" width="80" height="30" fill="#3399cc" rx="6" ry="6"/>
    <text x="290" y="260" font-size="12" fill="white">Denmark</text>
  </a>

  <a href="https://namkoong7.tistory.com/entry/norway" target="_blank">
    <rect x="300" y="120" width="80" height="30" fill="#3399cc" rx="6" ry="6"/>
    <text x="310" y="140" font-size="12" fill="white">Norway</text>
  </a>

  <a href="https://namkoong7.tistory.com/entry/sweden" target="_blank">
    <rect x="360" y="140" width="80" height="30" fill="#3399cc" rx="6" ry="6"/>
    <text x="370" y="160" font-size="12" fill="white">Sweden</text>
  </a>

  <a href="https://namkoong7.tistory.com/entry/poland" target="_blank">
    <rect x="340" y="280" width="80" height="30" fill="#3399cc" rx="6" ry="6"/>
    <text x="350" y="300" font-size="12" fill="white">Poland</text>
  </a>

  <a href="https://namkoong7.tistory.com/entry/netherlands" target="_blank">
    <rect x="260" y="260" width="80" height="30" fill="#3399cc" rx="6" ry="6"/>
    <text x="270" y="280" font-size="12" fill="white">Netherlands</text>
  </a>

  <a href="https://namkoong7.tistory.com/entry/belgium" target="_blank">
    <rect x="240" y="280" width="80" height="30" fill="#3399cc" rx="6" ry="6"/>
    <text x="250" y="300" font-size="12" fill="white">Belgium</text>
  </a>

  <a href="https://namkoong7.tistory.com/entry/portugal" target="_blank">
    <rect x="80" y="460" width="80" height="30" fill="#3399cc" rx="6" ry="6"/>
    <text x="90" y="480" font-size="12" fill="white">Portugal</text>
  </a>

  <a href="https://namkoong7.tistory.com/entry/czech" target="_blank">
    <rect x="320" y="300" width="80" height="30" fill="#3399cc" rx="6" ry="6"/>
    <text x="330" y="320" font-size="12" fill="white">Czech</text>
  </a>

  <a href="https://namkoong7.tistory.com/entry/switzerland" target="_blank">
    <rect x="260" y="320" width="80" height="30" fill="#3399cc" rx="6" ry="6"/>
    <text x="270" y="340" font-size="12" fill="white">Switzerland</text>
  </a>

  <a href="https://namkoong7.tistory.com/entry/finland" target="_blank">
    <rect x="420" y="100" width="80" height="30" fill="#3399cc" rx="6" ry="6"/>
    <text x="430" y="120" font-size="12" fill="white">Finland</text>
  </a>

  <a href="https://namkoong7.tistory.com/entry/romania" target="_blank">
    <rect x="420" y="340" width="80" height="30" fill="#3399cc" rx="6" ry="6"/>
    <text x="430" y="360" font-size="12" fill="white">Romania</text>
  </a>

  <a href="https://namkoong7.tistory.com/entry/hungary" target="_blank">
    <rect x="360" y="320" width="80" height="30" fill="#3399cc" rx="6" ry="6"/>
    <text x="370" y="340" font-size="12" fill="white">Hungary</text>
  </a>

  <a href="https://namkoong7.tistory.com/entry/turkey" target="_blank">
    <rect x="460" y="500" width="80" height="30" fill="#3399cc" rx="6" ry="6"/>
    <text x="470" y="520" font-size="12" fill="white">Turkey</text>
  </a>

</svg>