<?xml version="1.0" encoding="UTF-8" standalone="no"?>
<svg width="100%" height="auto" viewBox="0 0 1000 800" xmlns="http://www.w3.org/2000/svg">
  <image href="europe_map_background.png" x="0" y="0" width="1000" height="800" />
  
  <a href="https://namkoong7.tistory.com/entry/uk" target="_blank">
    <rect x="60" y="250" width="80" height="30" fill="transparent" stroke="#FF9933" stroke-width="0" rx="6" ry="6">
      <title>UK</title>
    </rect>
  </a>

  <a href="https://namkoong7.tistory.com/entry/france" target="_blank">
    <rect x="160" y="360" width="80" height="30" fill="transparent" stroke="#FF9933" stroke-width="0" rx="6" ry="6">
      <title>France</title>
    </rect>
  </a>

  <a href="https://namkoong7.tistory.com/entry/germany" target="_blank">
    <rect x="260" y="300" width="80" height="30" fill="transparent" stroke="#FF9933" stroke-width="0" rx="6" ry="6">
      <title>Germany</title>
    </rect>
  </a>

  <a href="https://namkoong7.tistory.com/entry/italy" target="_blank">
    <rect x="240" y="420" width="80" height="30" fill="transparent" stroke="#FF9933" stroke-width="0" rx="6" ry="6">
      <title>Italy</title>
    </rect>
  </a>

  <a href="https://namkoong7.tistory.com/entry/austria" target="_blank">
    <rect x="320" y="340" width="80" height="30" fill="transparent" stroke="#FF9933" stroke-width="0" rx="6" ry="6">
      <title>Austria</title>
    </rect>
  </a>

  <a href="https://namkoong7.tistory.com/entry/greece" target="_blank">
    <rect x="400" y="480" width="80" height="30" fill="transparent" stroke="#FF9933" stroke-width="0" rx="6" ry="6">
      <title>Greece</title>
    </rect>
  </a>

  <a href="https://namkoong7.tistory.com/entry/spain" target="_blank">
    <rect x="100" y="440" width="80" height="30" fill="transparent" stroke="#FF9933" stroke-width="0" rx="6" ry="6">
      <title>Spain</title>
    </rect>
  </a>

  <a href="https://namkoong7.tistory.com/entry/denmark" target="_blank">
    <rect x="280" y="240" width="80" height="30" fill="transparent" stroke="#FF9933" stroke-width="0" rx="6" ry="6">
      <title>Denmark</title>
    </rect>
  </a>

  <a href="https://namkoong7.tistory.com/entry/norway" target="_blank">
    <rect x="300" y="120" width="80" height="30" fill="transparent" stroke="#FF9933" stroke-width="0" rx="6" ry="6">
      <title>Norway</title>
    </rect>
  </a>

  <a href="https://namkoong7.tistory.com/entry/sweden" target="_blank">
    <rect x="360" y="140" width="80" height="30" fill="transparent" stroke="#FF9933" stroke-width="0" rx="6" ry="6">
      <title>Sweden</title>
    </rect>
  </a>

  <a href="https://namkoong7.tistory.com/entry/poland" target="_blank">
    <rect x="340" y="280" width="80" height="30" fill="transparent" stroke="#FF9933" stroke-width="0" rx="6" ry="6">
      <title>Poland</title>
    </rect>
  </a>

  <a href="https://namkoong7.tistory.com/entry/netherlands" target="_blank">
    <rect x="260" y="260" width="80" height="30" fill="transparent" stroke="#FF9933" stroke-width="0" rx="6" ry="6">
      <title>Netherlands</title>
    </rect>
  </a>

  <a href="https://namkoong7.tistory.com/entry/belgium" target="_blank">
    <rect x="240" y="280" width="80" height="30" fill="transparent" stroke="#FF9933" stroke-width="0" rx="6" ry="6">
      <title>Belgium</title>
    </rect>
  </a>

  <a href="https://namkoong7.tistory.com/entry/portugal" target="_blank">
    <rect x="80" y="460" width="80" height="30" fill="transparent" stroke="#FF9933" stroke-width="0" rx="6" ry="6">
      <title>Portugal</title>
    </rect>
  </a>

  <a href="https://namkoong7.tistory.com/entry/czech" target="_blank">
    <rect x="320" y="300" width="80" height="30" fill="transparent" stroke="#FF9933" stroke-width="0" rx="6" ry="6">
      <title>Czech</title>
    </rect>
  </a>

  <a href="https://namkoong7.tistory.com/entry/switzerland" target="_blank">
    <rect x="260" y="320" width="80" height="30" fill="transparent" stroke="#FF9933" stroke-width="0" rx="6" ry="6">
      <title>Switzerland</title>
    </rect>
  </a>

  <a href="https://namkoong7.tistory.com/entry/finland" target="_blank">
    <rect x="420" y="100" width="80" height="30" fill="transparent" stroke="#FF9933" stroke-width="0" rx="6" ry="6">
      <title>Finland</title>
    </rect>
  </a>

  <a href="https://namkoong7.tistory.com/entry/romania" target="_blank">
    <rect x="420" y="340" width="80" height="30" fill="transparent" stroke="#FF9933" stroke-width="0" rx="6" ry="6">
      <title>Romania</title>
    </rect>
  </a>

  <a href="https://namkoong7.tistory.com/entry/hungary" target="_blank">
    <rect x="360" y="320" width="80" height="30" fill="transparent" stroke="#FF9933" stroke-width="0" rx="6" ry="6">
      <title>Hungary</title>
    </rect>
  </a>

  <a href="https://namkoong7.tistory.com/entry/turkey" target="_blank">
    <rect x="460" y="500" width="80" height="30" fill="transparent" stroke="#FF9933" stroke-width="0" rx="6" ry="6">
      <title>Turkey</title>
    </rect>
  </a>

</svg>